inDegrees=no
num_controls=7
num_derivatives=13
num_iterations=88
num_multipliers=7
num_parameters=0
num_slacks=7
num_states=26
objective=0.470037
objective_accelerations=0.064466
objective_balance=0.002088
objective_effort=0.020561
objective_height=0.373374
objective_ligament=0.009549
solver_duration=1223.892327
status=Solve_Succeeded
success=true
DataType=double
version=3
OpenSimVersion=4.5
endheader
time	/jointset/ground_pelvis/pelvis_tilt/value	/jointset/ground_pelvis/pelvis_tx/value	/jointset/ground_pelvis/pelvis_ty/value	/jointset/hip_l/hip_flexion_l/value	/jointset/hip_l/hip_adduction_l/value	/jointset/hip_l/hip_rotation_l/value	/jointset/back/lumbar_extension/value	/jointset/patellofemoral_l/patellar_flexion_l/value	/jointset/knee_l/knee_flexion_l/value	/jointset/knee_l/knee_adduction_l/value	/jointset/knee_l/knee_rotation_l/value	/jointset/ankle_l/ankle_angle_l/value	/jointset/subtalar_l/subtalar_angle_l/value	/jointset/ground_pelvis/pelvis_tilt/speed	/jointset/ground_pelvis/pelvis_tx/speed	/jointset/ground_pelvis/pelvis_ty/speed	/jointset/hip_l/hip_flexion_l/speed	/jointset/hip_l/hip_adduction_l/speed	/jointset/hip_l/hip_rotation_l/speed	/jointset/back/lumbar_extension/speed	/jointset/patellofemoral_l/patellar_flexion_l/speed	/jointset/knee_l/knee_flexion_l/speed	/jointset/knee_l/knee_adduction_l/speed	/jointset/knee_l/knee_rotation_l/speed	/jointset/ankle_l/ankle_angle_l/speed	/jointset/subtalar_l/subtalar_angle_l/speed	/forceset/tau_hip_flexion_l	/forceset/tau_hip_adduction_l	/forceset/tau_hip_rotation_l	/forceset/tau_knee_flexion_l	/forceset/tau_ankle_angle_l	/forceset/tau_subtalar_angle_l	/forceset/tau_lumbar_extension	lambda_cid13_p0	lambda_cid13_p1	lambda_cid13_p2	lambda_cid13_p3	lambda_cid13_p4	lambda_cid13_p5	lambda_cid14_p0	/jointset/ground_pelvis/pelvis_tilt/accel	/jointset/ground_pelvis/pelvis_tx/accel	/jointset/ground_pelvis/pelvis_ty/accel	/jointset/hip_l/hip_flexion_l/accel	/jointset/hip_l/hip_adduction_l/accel	/jointset/hip_l/hip_rotation_l/accel	/jointset/back/lumbar_extension/accel	/jointset/patellofemoral_l/patellar_flexion_l/accel	/jointset/knee_l/knee_flexion_l/accel	/jointset/knee_l/knee_adduction_l/accel	/jointset/knee_l/knee_rotation_l/accel	/jointset/ankle_l/ankle_angle_l/accel	/jointset/subtalar_l/subtalar_angle_l/accel	gamma_cid13_p0	gamma_cid13_p1	gamma_cid13_p2	gamma_cid13_p3	gamma_cid13_p4	gamma_cid13_p5	gamma_cid14_p0
1.5	-0.5591156004383654	-0.0427795968754266	0.788762958415998	1.214686651893838	-0.3478670587181658	-0.1143493377820055	-0.3425392263189027	0.5752207870434722	0.5752207870434601	-0.05857987057962893	-0.17445004323616	0.01549262032598729	0.07882811324225743	1.084079704041187	0.5027061974248938	0.4828043943819172	-2.850198548533663	-0.004432957855232448	-0.5243850061928916	0.6091079868957835	-1.566405991947707	-1.566405991947916	-0.2165788893519163	0.003699264370720879	0.08817368063617291	0.02782857489910433	-0.2036061461870282	0.03014542604287286	0.007211561465349806	-0.06707035269159196	0.04125342406407842	-0.004082459331887688	0.1660680407470317	-11.37433742122131	1.304199156133202	2.321407061849481	-7.845425881656608	-429.9205338857483	-48.52849342965475	-19.88925855342662	0.8171843209554693	0.8918706979730077	-0.6155650982866915	-1.779814847980728	0.2521021457825032	-0.268334082182969	1.872292243501372	-0.6033344207867611	-0.6033344207867839	-0.3439892365875093	0.1798045115456955	0.3065286720029744	0.3544090010318408	-4.793766215248672e-09	1.538481064269956e-06	8.73914804158267e-08	3.042131948002672e-07	2.876043247337577e-07	-1.619879276771855e-07	2.483827024075833e-07
1.51	-0.5482346703526562	-0.03770853129841047	0.7935592279150289	1.186098134924776	-0.3479000132753784	-0.1196080112546074	-0.3363567994085374	0.5595284101344764	0.559528410134539	-0.06076430162135014	-0.1744066108791024	0.01638938091162941	0.07912279339366131	1.091920845558292	0.5114327527617222	0.4763406672756462	-2.86708908865036	-0.002146943949392143	-0.5272932049407374	0.6272681590795581	-1.571856120098144	-1.571856120098083	-0.2202751858328167	0.005005230718240185	0.09117751919600785	0.03111896362902196	-0.1963901967847341	0.02931832388007153	0.007549526253746159	-0.06567755870855897	0.03835664530450838	-0.004934889272588583	0.1606943936293659	-12.14181264698153	1.627657128978364	2.476734789125839	-7.150992449198332	-425.8531279282386	-48.31297577562886	-20.41784298659253	0.7397875206150187	0.8519778582923463	-0.6780232910091984	-1.58127522030081	0.2182813982440952	-0.2933660405978962	1.771494291144733	-0.4839198019280708	-0.4839198018874419	-0.3773602682311376	0.1085710191229386	0.2972173919336363	0.3178836186903155	2.420956779038899e-08	1.495688301241713e-06	-1.695932157158377e-07	2.839066959127907e-07	3.583141094969282e-07	-1.48648743487414e-07	2.766828886520164e-07
1.52	-0.5372808871610723	-0.03255241418667523	0.7982876107881548	1.15735319222919	-0.3479098216164787	-0.1248940273685969	-0.3299960478592686	0.5437879183860507	0.543787918386145	-0.06298467771080991	-0.1743496031939745	0.01731616107166193	0.07945068339430816	1.098650325216485	0.5197165043687141	0.4692270692009247	-2.881483693838517	0.0001962853668233246	-0.5298535344690827	0.6447729146765065	-1.576028959838815	-1.576028959838483	-0.2237678988893108	0.006414329976471034	0.09417759551423778	0.03447054474768272	-0.1891742473824418	0.02849122171724753	0.00788749104189122	-0.06428476472552225	0.03545986654493271	-0.005787319213309616	0.1553207465117053	-12.91287519755487	1.952543095769737	2.630921585051352	-6.441933008753967	-421.8347495269419	-48.14272929056754	-20.92521001879076	0.5948519491731753	0.8033099520057291	-0.7455392919767595	-1.280627862272575	0.2635452278575339	-0.1987602382829536	1.741208926136109	-0.3478767388335027	-0.3478767388335028	-0.3032725517062811	0.2004310936879327	0.3057762236820066	0.3666474787804623	5.461539934272488e-08	1.445475132173487e-06	-4.33589019796747e-07	2.622252320881461e-07	4.366596883604717e-07	-1.285023157753079e-07	3.049767436733134e-07
1.53	-0.5262652245657942	-0.02731581524217524	0.8029416859867844	1.128476606985745	-0.3478962503771479	-0.1302030802240572	-0.3234638830803674	0.528011936307618	0.5280119363077331	-0.06523999068824929	-0.1742774399421817	0.01827266960274842	0.07981196105814953	1.104294042934198	0.5275126700305288	0.4614849535740903	-2.893396306749249	0.002527547824446022	-0.5318920492427809	0.6615300795797511	-1.578947797894978	-1.578947797894626	-0.2272569360794856	0.008041822557952846	0.09711226154052766	0.03779184626356731	-0.1821197134849989	0.02763568212207731	0.008206983167724469	-0.06267056439269372	0.03218736930343852	-0.006756542994930791	0.1499959476804806	-13.82367655884854	2.339321252624112	2.790430751064119	-5.560479786475605	-417.9658402118866	-47.8643496954605	-21.40851356115476	0.52094582174893	0.7542230369604941	-0.8038863598200535	-1.080974078281322	0.2192089827193187	-0.1963659029008966	1.623476043804154	-0.2310083283210927	-0.2310083283181084	-0.3658410167267211	0.1472128859147362	0.2855725055435104	0.3157870419076064	8.651138453842764e-08	1.387377781687781e-06	-7.050341260737284e-07	2.390828680177602e-07	5.231182984556612e-07	-1.011231918207215e-07	3.332638717700281e-07
1.54	-0.5151987619656048	-0.02200396400831899	0.8075152722967893	1.099494016398632	-0.3478591080676375	-0.1355305119884558	-0.3167680454981568	0.512213341650808	0.5122133416508596	-0.06752901838051092	-0.1741883408553908	0.01925817693678609	0.08020663484793288	1.108810326199057	0.5347669622399646	0.4531292914759516	-2.902684762572292	0.004910499402256089	-0.5335293162559807	0.6775074753384214	-1.580551475523675	-1.580551475523303	-0.2305108418318045	0.009801496960886801	0.09997735610445871	0.04114976993605791	-0.1750651795875483	0.02678014252689681	0.008526475293070799	-0.06105636405984841	0.02891487206194379	-0.0077257667765573	0.1446711488492671	-14.73824988037941	2.726546824924745	2.950112638524075	-4.667093753739713	-414.1491877359429	-47.64804545912764	-21.86599153299236	0.3693650586023323	0.694935261529943	-0.8682485862375816	-0.7557964447347733	0.2738830518950241	-0.1185106861833857	1.585255097221248	-0.08484465334021889	-0.08484465334021861	-0.2562462641351329	0.2268674579783012	0.2918619312102805	0.3739719101016601	1.017290115677297e-07	1.417260902772532e-06	-8.320144315438683e-07	2.297108216061186e-07	5.869576182356456e-07	-6.87469223640393e-08	3.521511052302801e-07
1.55	-0.5040927973629878	-0.01662233532435592	0.812002345853015	1.070431557936752	-0.3477979698272662	-0.1408726636228622	-0.3099165961263839	0.4964051500818153	0.4964051500818883	-0.06984947076634898	-0.1740813078880297	0.02027191015519207	0.08063495654125653	1.112187114063545	0.5414620319503975	0.4441909133787171	-2.909356016781017	0.00731699199578916	-0.5348181850738477	0.6926323972610413	-1.580857040501852	-1.580857040501364	-0.2335560965426247	0.01163395588374237	0.1027599673689315	0.04451205104850044	-0.1679667196893651	0.02562792690326969	0.008811635836859481	-0.05980722268646613	0.02618557596333397	-0.008823982067217743	0.1392979934248751	-15.49914965497925	3.158786112257917	3.084455899545703	-3.889394182698616	-410.5840219413898	-47.42200239932994	-22.29849323945295	0.2925457078597074	0.6423293980099978	-0.920679235361516	-0.5551096794217459	0.2238085020195126	-0.1213600449355205	1.453610476491957	0.03098430832321598	0.03098430834059009	-0.3248710599664639	0.16554881639386	0.2701085167686197	0.3168141839096821	9.773026940531033e-08	1.548512828058021e-06	-7.925461621713519e-07	2.362045759752032e-07	6.247355817828952e-07	-3.061307222016016e-08	3.60208025305043e-07
